<?xml version="1.0" encoding="UTF-8"?>
<svg width="512pt" height="512pt" version="1.1" viewBox="0 0 512 512" xmlns="http://www.w3.org/2000/svg">
 <path d="m118.22 175.74c0-76.098 61.68-137.8 137.78-137.8s137.78 61.699 137.78 137.78c0 73.062-75.82 162.42-128.86 212.7-5 4.7383-12.84 4.7383-17.84 0-53.039-50.281-128.86-139.64-128.86-212.68zm217.02 166.36c-2.9414 3.5586-5.8984 7.0586-8.8594 10.5 50.602 7.3398 85.301 22.34 85.301 39.641 0 24.539-69.699 44.422-155.66 44.422-85.961 0-155.66-19.879-155.66-44.422 0-17.301 34.68-32.301 85.277-39.641-2.9805-3.4414-5.918-6.9414-8.8594-10.5-67.359 10.801-114.28 34.922-114.28 62.961 0 38.102 86.621 69.004 193.5 69.004 106.86 0 193.5-30.898 193.5-69.004 0-28.039-46.922-52.164-114.26-62.961zm-79.242-229.5c-34.859 0-63.141 28.262-63.141 63.141 0 34.859 28.262 63.141 63.141 63.141 34.859 0 63.141-28.262 63.141-63.141 0-34.879-28.281-63.141-63.141-63.141z" fill="#ff563f" fill-rule="evenodd"/>
</svg>
